<?xml version="1.0" encoding="UTF-8" standalone="no"?>
<svg
   xmlns:dc="http://purl.org/dc/elements/1.1/"
   xmlns:cc="http://creativecommons.org/ns#"
   xmlns:rdf="http://www.w3.org/1999/02/22-rdf-syntax-ns#"
   xmlns:svg="http://www.w3.org/2000/svg"
   xmlns="http://www.w3.org/2000/svg"
   xmlns:sodipodi="http://sodipodi.sourceforge.net/DTD/sodipodi-0.dtd"
   xmlns:inkscape="http://www.inkscape.org/namespaces/inkscape"
   height="32px"
   id="Layer_1"
   style="enable-background:new 0 0 32 32;"
   version="1.1"
   viewBox="0 0 32 32"
   width="32px"
   xml:space="preserve"
   sodipodi:docname="menu2.svg"
   inkscape:version="0.92.3 (2405546, 2018-03-11)"><metadata
     id="metadata9"><rdf:RDF><cc:Work
         rdf:about=""><dc:format>image/svg+xml</dc:format><dc:type
           rdf:resource="http://purl.org/dc/dcmitype/StillImage" /><dc:title></dc:title></cc:Work></rdf:RDF></metadata><defs
     id="defs7" /><sodipodi:namedview
     pagecolor="#ffffff"
     bordercolor="#666666"
     borderopacity="1"
     objecttolerance="10"
     gridtolerance="10"
     guidetolerance="10"
     inkscape:pageopacity="0"
     inkscape:pageshadow="2"
     inkscape:window-width="1825"
     inkscape:window-height="1045"
     id="namedview5"
     showgrid="false"
     inkscape:zoom="26.042969"
     inkscape:cx="16"
     inkscape:cy="16"
     inkscape:window-x="0"
     inkscape:window-y="28"
     inkscape:window-maximized="0"
     inkscape:current-layer="Layer_1" /><path
     d="M4,10h24c1.104,0,2-0.896,2-2s-0.896-2-2-2H4C2.896,6,2,6.896,2,8S2.896,10,4,10z M28,14H4c-1.104,0-2,0.896-2,2  s0.896,2,2,2h24c1.104,0,2-0.896,2-2S29.104,14,28,14z M28,22H4c-1.104,0-2,0.896-2,2s0.896,2,2,2h24c1.104,0,2-0.896,2-2  S29.104,22,28,22z"
     id="path2" /><path
     style="fill:#ffffff;fill-opacity:1;stroke-width:0;stroke-miterlimit:4;stroke-dasharray:none"
     d="M 3.5339818,25.921303 C 3.1864868,25.837014 2.9029025,25.671134 2.6147261,25.383593 1.9956967,24.76593 1.8510828,23.93093 2.2251808,23.134363 2.373395,22.818771 2.7972911,22.384453 3.0982451,22.239835 3.5886988,22.004156 2.608112,22.020819 15.986978,22.020819 c 8.772868,0 12.277229,0.01197 12.423311,0.04243 0.725883,0.151374 1.372806,0.798296 1.524179,1.524179 0.139507,0.668976 -0.05378,1.301353 -0.549194,1.796763 -0.295034,0.295034 -0.611781,0.473453 -0.974985,0.549194 -0.312454,0.06516 -24.6065176,0.05336 -24.8763072,-0.01208 z"
     id="path819"
     inkscape:connector-curvature="0" /><path
     style="fill:#ffffff;fill-opacity:1;stroke-width:0;stroke-miterlimit:4;stroke-dasharray:none"
     d="M 3.5691075,17.930882 C 3.2309298,17.85741 2.8872838,17.664147 2.61341,17.393409 1.5349915,16.327336 2.0076471,14.527629 3.4795957,14.095278 c 0.1890317,-0.05552 1.3610789,-0.06122 12.5177743,-0.0608 13.493602,5e-4 12.470619,-0.01806 12.947338,0.234858 0.623972,0.331037 1.029847,1.017074 1.031626,1.74372 0.0022,0.892922 -0.681811,1.73274 -1.563394,1.919551 -0.378197,0.08014 -24.4747168,0.07847 -24.8438325,-0.0017 z"
     id="path821"
     inkscape:connector-curvature="0" /><path
     style="fill:#ffffff;fill-opacity:1;stroke-width:0;stroke-miterlimit:4;stroke-dasharray:none"
     d="M 3.47884,9.9083546 C 2.6394086,9.6767899 2.0230988,8.8711962 2.0230988,8.0055197 c 0,-0.938655 0.7080404,-1.7883686 1.6293711,-1.9553952 0.3210792,-0.058208 24.3739811,-0.058208 24.6950601,0 0.918074,0.1664361 1.629371,1.01697 1.629371,1.9483205 0,0.8849125 -0.616067,1.6821434 -1.478326,1.9130514 C 28.22255,9.9854142 3.7470429,9.9823408 3.47884,9.9083554 Z"
     id="path823"
     inkscape:connector-curvature="0" /></svg>