<svg width="24" height="24" xmlns="http://www.w3.org/2000/svg">

 <g>
  <title>background</title>
  <rect fill="none" id="canvas_background" height="402" width="582" y="-1" x="-1"/>
 </g>
 <g>
  <title>Layer 1</title>
  <path id="svg_1" d="m18,16.184l0,-1.851c0,-1.93 -1.57,-3.5 -3.5,-3.5c-0.827,0 -1.5,-0.673 -1.5,-1.5l0,-1.517c1.161,-0.415 2,-1.514 2,-2.816c0,-1.654 -1.346,-3 -3,-3s-3,1.346 -3,3c0,1.302 0.839,2.401 2,2.815l0,1.518c0,0.827 -0.673,1.5 -1.5,1.5c-1.93,0 -3.5,1.57 -3.5,3.5l0,1.851c-1.161,0.415001 -2,1.514 -2,2.816c0,1.653999 1.346,3 3,3s3,-1.346001 3,-3c0,-1.302 -0.839,-2.400999 -2,-2.816l0,-1.851c0,-0.827001 0.673,-1.5 1.5,-1.5c0.979,0 1.864,-0.407001 2.5,-1.058001c0.636,0.651 1.521,1.058001 2.5,1.058001c0.827,0 1.5,0.672999 1.5,1.5l0,1.851c-1.161,0.415001 -2,1.514 -2,2.816c0,1.653999 1.346,3 3,3s3,-1.346001 3,-3c0,-1.302 -0.839001,-2.400999 -2,-2.816zm-11,3.816c-0.552,0 -1,-0.448999 -1,-1s0.448,-1 1,-1s1,0.448999 1,1s-0.448,1 -1,1zm5,-16c0.552,0 1,0.449 1,1s-0.448,1 -1,1s-1,-0.449 -1,-1s0.448,-1 1,-1zm5,16c-0.552,0 -1,-0.448999 -1,-1s0.448,-1 1,-1s1,0.448999 1,1s-0.448,1 -1,1z"/>
 </g>
</svg>