<svg xmlns="http://www.w3.org/2000/svg" viewBox="0 0 1882 474.33"><defs><style>.cls-1{fill:#fff;}</style></defs><g id="Layer_2" data-name="Layer 2"><g id="Layer_1-2" data-name="Layer 1"><path class="cls-1" d="M1736.65,1.13c9.21,18.4,17.81,35.55,26.4,52.71,4.63,9.27,9.72,18.34,13.69,27.88C1780,89.41,1785.17,92,1793.11,93c27,3.26,53.9,7.21,80.83,11,2.33.33,4.57,1.28,3.74-.4-17.55,19.29-34.16,39.55-53,57.5-11.57,11-15.88,20.77-11.94,36.92,6.14,25.17,9.07,51.11,13.67,78.55-6.47-3.35-11.72-6-16.93-8.79-21.19-11.22-42.48-22.28-63.49-33.83-6.56-3.61-11.88-4.1-18.8-.33-22.64,12.33-45.7,23.89-68.63,35.7-3,1.57-6.26,2.85-11.08,5,4.78-28.07,8.82-54.39,13.93-80.51,2.29-11.7,2.57-21.7-8.79-28.8-1.48-.93-2.56-2.49-3.82-3.76-21.84-21.89-21.71-21.89-19.75-52.51.39-6.21,2.67-8.54,9-9.24,15.26-1.71,30.39-4.47,45.62-6.46,6.13-.8,9.3-4.25,11.84-9.45,12.22-25.07,24.65-50,37-75C1733.58,6.44,1734.81,4.43,1736.65,1.13Z"/><path class="cls-1" d="M1068.32.85c14.29,28.54,27.85,54.87,40.61,81.58,3.46,7.24,8.24,9.62,15.59,10.58,29,3.8,58,8.07,87.12,12.19-10.35,11.12-20,21.92-30.1,32.22-10.79,11-21.84,21.73-33.22,32.08-5.77,5.25-6.83,10.68-5.41,18.1,5,26.25,9.44,52.62,14,79,.41,2.38,0,4.89,0,8.93-16-8.38-31.08-16.25-46.14-24.17-12-6.34-23.85-13.14-36.17-18.86-3.55-1.65-9.08-1.55-12.74,0-9.8,4.14-19.07,9.49-30.43,15.32-.34-5.41-.77-9.07-.77-12.73,0-42.21,0-84.41-.12-126.62,0-6.72-1.27-13.43-1.72-20.17-.16-2.4-.29-5.16.7-7.22C1042,55,1054.68,29,1068.32.85Z"/><path class="cls-1" d="M720.71,39.8l-32.24-5.07c.38-6.61,2-10.43,9-11.34,39.15-5.08,78.34-9.1,117.8-4.08a125.09,125.09,0,0,1,23.91,5.76c22.12,7.45,36.81,22.08,40.16,45.72,3.43,24.16-2.12,46-22.57,61.14-11.06,8.19-23.85,14-37.22,21.75,28.12,43.35,59.72,85.44,92.7,126.56l-.85,2.55c-4.32,0-8.72.52-13-.09C879.3,280,862,272.29,850.15,257.14,825.06,225.06,801.27,192,777,159.26c-.79-1.06-.94-2.57-1.68-4.72,5.95-2.06,11.76-3.63,17.19-6.06,8.78-3.92,17.86-7.57,25.85-12.81,28.15-18.47,27.45-54,18.14-73.7C831,50.34,821.19,43.22,809.32,39c-16.77-6-34.2-7.1-53.22-6.52-.21,4-.58,7.79-.58,11.54q0,88.51,0,177c0,9.28.53,18.56.75,27.85.11,4.83,1.92,7.66,7.12,9,10.32,2.7,20.41,6.24,30.77,9.49.44,6.17-.6,10-7.74,9.95-32.95-.17-65.91-.08-98.86-.08-.67-.72-1.34-1.45-2-2.17q4.17-4.78,8.35-9.55a1.76,1.76,0,0,1,1-.48c20.71-3.31,24.63-16.33,24.46-35.55-.56-60,.79-120.1,1.39-180.14C720.74,46.55,720.71,43.71,720.71,39.8Z"/><path class="cls-1" d="M1387.15,236.91c-.59-8.09-1.2-12.59-1.21-17.09-.06-54.33,1.21-108.7-.67-163-.72-21,8.84-36.63,17.09-55.56,8.55,16.81,16.43,32.23,24.24,47.69,5.64,11.15,11.58,22.17,16.61,33.59,3,6.85,7.75,9.3,14.77,10.19,27.31,3.46,54.57,7.31,81.83,11.09,2.45.34,4.81,1.25,5,.1-20.54,21.8-40.86,43.83-61.79,65.26-5.26,5.39-7.37,9.7-5.84,17.6,5.68,29.32,10.2,58.85,15.43,89.94-17.83-9.36-34.25-17.94-50.63-26.58-7.27-3.84-14.52-7.73-21.69-11.76C1410.4,232.87,1400.9,225.22,1387.15,236.91Z"/><path class="cls-1" d="M677.09,269.39c-3.87,3.47-6.28,7.53-8.75,7.58-27.52.45-55.05.28-82.55.28-1.25-8.61,4.82-11.54,9.6-14.89,4.62-3.24,5.54-6.31,3.33-11.65q-12.48-30.18-24-60.73c-1.83-4.83-4.26-6.59-9.42-6.44-24,.67-48,.83-72,1.61-3.24.11-8.31,1.89-9.27,4.23-8.65,21.11-16.58,42.52-25.22,65.15,9.57,3.82,18.51,7,27.11,11,2.59,1.2,4.23,4.47,6.31,6.79-2.67,1.65-5.32,4.69-8,4.73-26.13.36-52.27.22-78.41.22l-2-2.1c2.7-3.27,4.82-8.49,8.21-9.51,18.37-5.51,26.71-19.08,33.52-35.68C468.33,174.52,492,119.4,515.42,64.18c4.26-10,8.38-20,1-30.93l29.14-19.8c25.45,78.87,59.13,153.3,89.49,229,2.83,7,11.12,12.57,18,17.12C659.12,263.61,666.77,265.32,677.09,269.39ZM492.8,165h73L530.58,70l-2.07.23C516.85,101.18,505.2,132.12,492.8,165Z"/><path class="cls-1" d="M155.68,11.58c1.16,23.93-10,60.88-20.5,67.27-3.6-10.22-7.57-20-10.41-30-1.85-6.57-5.42-10.42-11.63-12.71C99.6,31.09,85.87,29.94,72,34c-18,5.32-28.43,17.75-31,36-2.42,17.49,3.76,32.06,19.35,41,19.22,11.06,39.06,21.06,58.55,31.67,6.28,3.41,12.42,7.11,18.42,11,45,29.23,34.35,94.29-5.45,115.68-31.66,17-64.39,18.09-97.74,6.61-10.39-3.57-20-9.34-30-14.25-4.14-2.06-5.16-5.15-3.39-9.76,4.72-12.33,8.76-24.93,13.64-37.19,1.32-3.33,4.67-5.85,7.09-8.73l3,1.07c3.16,14.55,6.75,29,9.29,43.67,1.27,7.33,4.34,11.41,11.66,13.08,18.91,4.34,37.66,5.14,56-2.19,17.64-7.07,27-20.63,28.93-39.28,1.82-17.81-5.48-31.79-20.51-40.75C91.2,170.57,71.25,161.41,52.67,150c-11.42-7-23.22-15.08-31.41-25.39C-7,89,10.85,35.37,55.59,19.82c21.76-7.57,43.74-7.54,64.65,3.52,4.71,2.49,8.31,2.51,12.82-.11C140,19.22,147.29,15.85,155.68,11.58Z"/><path class="cls-1" d="M319.85,255.32l45.44,12.13c.55,5.53,0,9.79-6.63,9.8q-59.61,0-119.35,0c0-6.57,2.13-10,8.23-11.39,8.71-2,17.06-5.56,25.8-7.3,8-1.58,10.22-5.55,10.17-13.31-.23-34.69.13-69.39.2-104.09q.07-45.6,0-91.21V38.54c-20.24-.83-39.47-1.89-58.72-2.1-2.82,0-6.68,3.4-8.35,6.24-6,10.14-11,20.84-16.9,31.06-1.86,3.23-5.19,5.61-7.85,8.38l-2.2-1.48V14.85c6,.92,11.17,1.87,16.39,2.46,12,1.36,24.06,3.47,36.12,3.62,38.37.46,76.75-.1,115.12.29,18.71.18,37.2-.68,55.43-5.13,2.28-.56,4.73-.43,7.14-.63.37,23.63-8.69,61.24-17.06,66.77L386.26,35.48l-66.41,3Z"/><path class="cls-1" d="M1344.2,385.86c25.73-13.2,31.87-21.28,28.09-35.82-3.26-12.52-14.12-17.87-35.1-16.88v93.48l14.86,5.86-.18,3.14c-14.29.38-28.59.12-43,.1.14-1.89.05-3.07.27-3.13,11.82-3.15,12.59-11.82,12.36-22.13-.53-24.61-.17-49.23-.17-74.21l-13.43-3.57c1.95-1.78,2.84-3.32,3.79-3.35,17.47-.63,35-2.4,52.38-1.15,14.78,1.07,22.2,9.27,24,20.7,2.12,13.51-3.28,23.34-16.77,30.41-2.49,1.31-5,2.49-8.72,4.3l39.57,54.8C1368.89,433.57,1361.76,404.63,1344.2,385.86Z"/><path class="cls-1" d="M1794.7,407.56c-9.86-12.34-11.15-23.3-3.64-34.49,6.81-10.15,20.65-13.88,34.58-11.32,9.28,1.71,19,.93,30.25,1.32l-16.49,11.16c.75,3.1,2.8,8.13,3,13.25.71,16-14.14,28.28-31,26.14a25.9,25.9,0,0,1-5.23-1.18c-4.82-1.68-8.61.33-8.41,4.82.12,2.78,3.83,6,6.67,7.87,1.73,1.15,4.87.18,7.38.19,8.23.05,16.53-.52,24.69.31,15.65,1.58,22.09,15.9,13.53,29.08-10.51,16.21-37.9,24.41-55.68,16.68-13.48-5.86-15.27-15.2-4.81-25,2.6-2.44,5.13-5,7.69-7.44-3.56-5-9.22-9.56-9.75-14.66C1787,419.37,1791.76,413.88,1794.7,407.56Zm25.88,30.21c-4.78.24-9.74-.84-13.14,1-4.64,2.48-9.23,6.58-11.58,11.15-1.23,2.39,1.32,8.33,3.94,10.81,8.69,8.22,30.62,6.54,38.55-2.24,7.4-8.19,4.35-17.63-6.56-19.76C1828,438,1824,438,1820.58,437.77Zm8.75-51.16c-.15-11.74-6.26-20.51-14.38-20.61-8.29-.1-14.47,8.38-14.77,20.27s6,21.38,14.56,21.61S1829.48,399.19,1829.33,386.61Z"/><path class="cls-1" d="M234.77,435v28.13l14.65,6.08-.45,2.11H210.19c14.94-10,9-25.11,9.93-38.29,1-15.31.24-30.75.24-46.13,0-12.46,0-12.46-9.46-21.45l21.8-5.35c.82,3.49,1.48,6.26,2.29,9.7,3-1.63,5.49-3,8-4.28,16.79-8.8,34-2.81,41.71,14.53,11.08,24.74-5.16,54.38-32,57.43C247,438.08,240.91,435.87,234.77,435Zm-.58-34.44c0,6.43.49,12.9-.13,19.27-.72,7.44,3.42,9.23,9.43,9.89,13.3,1.46,24.92-6.83,28.67-20.57,4.24-15.51-1.91-31.91-13.89-37a23.28,23.28,0,0,0-4.11-1.18c-12.26-2.65-19.94,3.37-20,15.64C234.18,391.22,234.19,395.87,234.19,400.51Z"/><path class="cls-1" d="M748.35,364.59c4.18-20.16,1.87-30.57-10-39.15L763,319.62c.42,3.44,1,6.07,1,8.69-.05,25.72-.23,51.44-.31,77.15-.06,17.87,0,17.87,11.44,30-10.22,5.85-17.66.5-25.27-5.89-9.33,6.19-18.84,11-30.78,6.08-24.9-10.33-30.27-45.8-9.1-64.27C720.92,361.85,733.3,357.23,748.35,364.59Zm1.57,33c0-6.07-.49-12.19.12-18.19.78-7.65-3.08-10.82-9.76-10.66-4.82.12-10.12.81-14.29,3-13.31,6.93-18.28,26.45-11.22,41.51,3.92,8.35,10.31,13.63,19.59,14.84,10.18,1.33,15.43-3.28,15.55-13.35C750,409,749.92,403.32,749.92,397.61Z"/><path class="cls-1" d="M1234.51,364c-2.58-12.84,5.82-27.37-12.17-38.36l25.76-6.19V409c0,15.64,0,15.64,11,25.32-8,5.75-12.37,5-25.24-4.87-12.89,10.91-26.41,11-39.78.53-11.46-9-15.6-26.27-10.45-42.09,4.81-14.77,19-26.28,34.2-26.85C1222.59,360.85,1227.47,362.67,1234.51,364Zm-.24,33.85c0-5.36,0-10.71,0-16.07,0-11.71-4-15-15.78-13.07-17.09,2.83-27.12,23-20.6,41.37,3.34,9.4,9.32,15.95,19.57,17.77,11.26,2,16.72-2.54,16.8-13.94C1234.3,408.54,1234.27,403.18,1234.27,397.83Z"/><path class="cls-1" d="M1638.57,435.38c-10.25,5.77-17.69.64-25.62-6-10.65,8.55-22.26,11.47-35.25,4-15.81-9.12-22-30.35-13.88-49,7.71-17.57,26.66-26.82,43.8-21.39,1.28.41,2.54.88,5.72,2-2.64-13.85,6.59-28.68-12.58-39.43l26.21-5.94v86.76C1627,423.78,1627,423.78,1638.57,435.38Zm-25.43-38.13c0-4.28,0-8.57,0-12.85,0-15.25-9.5-20.59-23.4-13.17-15.71,8.39-20.34,33.49-8,47.62,3.68,4.22,9.7,7.47,15.23,8.83,10.47,2.58,16.08-2.63,16.17-13.29C1613.18,408.68,1613.14,403,1613.14,397.25Z"/><path class="cls-1" d="M693.57,434.94h-39.5c10.49-7.34,5-14.4,2.23-21.36-6.61-16.46-6.65-16.44-23.79-16.41-20.21,0-20.22,0-27.3,19.25-1.1,3-2,6.06-3.17,9.62l14.75,7.64c-2.75,1.26-3.6,2-4.45,2-10.68.08-21.37.05-32,.05a10.11,10.11,0,0,1-.22-2.52c11.49-4.51,15.37-14.86,19.63-25,8.42-20.07,17-40.08,25.46-60.12,1-2.3,2.85-5,2.35-7-2.3-9.28,4.57-11.2,9.74-14.16,11.73,29.06,23.56,57.7,34.77,86.57,3.32,8.54,7.64,15.14,16.82,17.76C690,431.54,690.83,432.71,693.57,434.94Zm-61.18-84.56-2,.05c-4.62,12.4-9.23,24.8-14.35,38.56h30.64C641.66,375.37,637,362.87,632.39,350.38Z"/><path class="cls-1" d="M10.4,407.06c1,4.1,2.65,8.17,2.88,12.32.53,9.49,6.51,12,14.4,11.64,5.65-.24,11.57-.67,16.8-2.56,6.82-2.46,10.64-8.13,11.34-15.62s-2-13.47-8.49-17.19c-8.7-4.95-17.79-9.22-26.47-14.22-15.06-8.68-20.43-22-14.93-35.9s21.7-21.86,37.25-18.48c12.66,2.75,12.66,2.75,23.44-.83-2,8.89-3.82,17-5.65,25.1l-2.23.36A65.55,65.55,0,0,1,55.17,345c-3.78-9.48-8.52-12.56-18.63-11.84-9.73.69-17.08,6.28-18.86,14.76-1.86,8.92,2,15.34,9.73,19.52,8.17,4.43,16.62,8.36,24.77,12.82,14.23,7.77,19.82,17.16,18.18,29.83-1.75,13.58-10.58,22.44-26,26.41-12.84,3.3-24.71.43-36.55-4.6-6.34-2.7-7.92-6.34-5.18-12.4,1.87-4.13,3.51-8.37,5.26-12.57Z"/><path class="cls-1" d="M1725.34,435.32h-31.83c1.22-1.78,1.79-3.67,2.94-4.14,6.07-2.44,7.18-7.26,7.12-13-.09-11.08-.24-22.16.07-33.23.18-6.7.13-12.86-8.66-15,.08-1,.15-1.92.22-2.88l21-6.81c.56,4.12,1,7.4,1.64,12.11,3.82-2.54,6.88-4.77,10.12-6.71,18.83-11.27,35.53-2.42,36.67,19.61a234.76,234.76,0,0,1,0,25.72c-.55,9.61-.87,18.68,12.1,21.61l-1.35,1.94h-31.25c10.78-15.07,6.43-32.67,6.2-49.49-.13-9.88-7.55-15.29-16.36-14.52-10,.87-16.51,7.48-16.58,17-.06,7.86-.08,15.72,0,23.58.1,8.53-2.68,18.15,10.4,22Z"/><path class="cls-1" d="M938.74,434.75c12.18-6.14,9-17.23,9.2-27.11.13-7.86-.31-15.75.13-23.58.37-6.59-.48-12-9-14.12,6.45-7.19,14.33-7.07,22.1-9.1.23,3.73.42,6.84.69,11.27,4.29-2.63,7.74-4.84,11.28-6.88,18-10.37,34.34-2,35.77,18.79a305.1,305.1,0,0,1,.1,32.15c-.25,7,.48,12.8,8.52,14.73,1.42.35,2.84.67,4.27,1l-2,2.51c-.85.44-1.7,1.24-2.56,1.25-9.62.09-19.24,0-30.48,0,13.18-15.62,7.89-33,8.11-49.45.15-10.58-7.21-16.47-16.35-15.76-10.37.81-16.7,7.55-16.75,17.91,0,7.87,0,15.73,0,23.59,0,13.86,0,13.86,9.56,22.75Z"/><path class="cls-1" d="M495.54,438c-21.18.11-37.26-15.86-37.45-37.2-.19-21.86,16.77-39.89,37.66-40.06,20.68-.17,36.47,16.38,36.42,38.14C532.11,421.56,516.86,437.84,495.54,438Zm22.29-38.78c-2.87-7.79-4.93-17.37-9.7-25.35-6-10-19.05-9.71-26.41-.72-10.36,12.65-9.87,39.89.94,52.27,9,10.26,23.39,8.75,29-3.67C514.57,415.36,515.48,408.11,517.83,399.18Z"/><path class="cls-1" d="M932,433.7c-12.46,6.79-20.27,2.88-27-3.89-5.09,2.53-9.67,5.53-14.69,7.16-10.24,3.34-20.59-2.21-24.12-12.26s-.11-17.38,10.57-22.18c4.54-2,9.29-3.67,14-5.3s9.41-3,13.87-4.39c.66-15.26-2.83-23-11.7-23.43-4.59-.23-10.81,1.59-13.61,4.81-2.67,3.06-1.86,9.15-4.74,14.59l-10.72-14.27c8.25-4.27,15.15-8.68,22.65-11.53,16.67-6.36,30.19,2.22,31.92,20.15a134.65,134.65,0,0,1,.12,24.59C917.61,418.6,917.6,428.53,932,433.7ZM904.9,398.31c-7,2.73-12.66,4.76-18.16,7.11-6.5,2.77-9.37,7.5-7,14.59,2.15,6.31,7,9.22,13.24,8.57,6.92-.73,12.26-3.95,11.93-12.32C904.73,411,904.9,405.62,904.9,398.31Z"/><path class="cls-1" d="M1495.83,390.65l-12-16.21c8.32-4.25,15.27-8.64,22.81-11.49,16.63-6.28,30.1,2.43,31.77,20.4.72,7.78.36,15.69.22,23.54-.31,17.14-.38,17.14,10.75,27.13-9.25,5.51-14.42,4.65-24.36-4.23-4.54,2.29-9,5.15-13.93,6.89a19.12,19.12,0,0,1-24.65-11.14c-4.08-10.27-.62-18.16,10.44-23.1,4.55-2,9.3-3.62,14-5.25s9.35-3,13.77-4.44c.4-16.14-3.37-22.78-13-23.79C1501.76,367.91,1500.4,369.57,1495.83,390.65Zm29,7.7c-6.86,2.67-12.81,4.77-18.58,7.29-6,2.62-8.74,7.15-6.7,13.81,2.1,6.86,7.19,9.91,13.88,9.07,6.41-.8,11.61-3.82,11.42-11.67C1524.75,411.24,1524.86,405.62,1524.86,398.35Z"/><path class="cls-1" d="M152.6,397.17c-1.35,12.21,1.87,21.43,11.22,28.08,12.09,8.6,22.25,2.53,33-6.26,0,8.29-4.18,12.06-8.81,14.81-16.67,9.91-39.41,2.37-47.21-15.32-10.17-23.08,1.61-51,24-56.8,17.16-4.47,32.86,6.49,34.81,24,.75,6.69-1.65,10.31-8.4,10.79-4.64.34-9.29.63-13.93.69C169.15,397.25,161,397.17,152.6,397.17Zm31.73-6.91c1.15-14.33-3.19-22.52-11.9-23.48-10.6-1.16-18.3,7.88-19.61,23.48Z"/><path class="cls-1" d="M1164.44,420.83a31,31,0,0,1-47.11,10.47c-12.51-10-15.21-23.81-12.57-38.73,2.67-15.18,10.8-26.37,26.33-30.74,16.75-4.71,32,5.33,34.93,22.44,1.25,7.4-.93,12-9,12.3-8.59.34-17.18.44-25.78.59-3.88.07-7.77,0-11.5,0-1.86,14.11,3,24.63,13,29.64C1138.28,429.54,1141.31,429,1164.44,420.83Zm-14-30.62c2-14-2.74-22.81-12.11-23.44-10.75-.72-18.66,9.26-18.49,23.44Z"/><path class="cls-1" d="M1424.63,397.17c-1,13.59,2.94,23.28,13.73,29.57,11.69,6.82,20.87-.34,30.13-7l2,2.78c-3.55,3.88-6.41,9-10.77,11.44-19.27,10.86-42.73.34-48.46-21.14-6-22.4,4.77-44.7,24.4-50.66,16.94-5.15,32.26,3.81,35.79,20.93,2,9.58.14,12.48-9.61,13.54-6,.66-12.16.44-18.25.52S1431.48,397.17,1424.63,397.17Zm.23-6.95h31.27c2-13.24-2.33-22.11-11-23.37C1434.58,365.3,1427,373.69,1424.86,390.22Z"/><path class="cls-1" d="M343.34,380.52c-1.35-2.35-2.91-4.61-4-7.07-2.74-6.05-8.27-7.69-13.37-5.87-4,1.43-9.12,5.74-9.59,9.31s3.44,8.87,6.91,11.41c5.38,3.95,12.06,6.11,18.11,9.19,7.67,3.9,12.08,9.87,11.51,18.83-.56,8.74-5.21,14.57-13,18.12-13.2,6-25.76,3.92-39-3.56l3.65-18,2.62-.55c1.78,4.26,3.95,8.41,5.28,12.8,2.27,7.52,8.52,7.93,13.76,6.3,4.85-1.5,10.39-5,12.74-9.29,3-5.37-1.28-10-6.64-12.68s-10.95-5.27-16.29-8.16c-11.41-6.18-15.51-16-11.3-26.68,4.07-10.29,15.92-15.87,27.49-13.38,4.8,1,9.81,1.1,16.56,1.79-.7,4.6-1.65,10.85-2.61,17.1Z"/><path class="cls-1" d="M1094.15,419.94c-3.33,8.87-6.87,14.68-15.22,16.65-16.15,3.8-32.4-1.28-41.41-13.4-8.62-11.59-9.16-30.76-1.23-43.61,8.24-13.37,26.78-21.44,42.87-18.25,4.74.94,9.26,3,15,5l-6.78,18.27-2.38-.1c-1.94-5.51-3.87-11-5.77-16.39-13.84-2.68-22.85,1.19-29,12.32-7.3,13.11-6.12,31.68,4.22,40.75,5,4.37,12.55,8,18.88,7.94S1085.92,423.81,1094.15,419.94Z"/><path class="cls-1" d="M816,439c-14.91-25.28-17.11-54.19-37.06-75.29H808c-7.06,7.6-2.92,15,.26,22.66,4,9.51,7.53,19.18,12.24,31.3l16.64-45-8-8.48h26.79c-18.82,14-20.56,36.69-30.09,55.27C822.66,425.63,819.6,431.8,816,439Z"/><path class="cls-1" d="M81.08,365.14,91,361.5c3.94-7.43.37-19.57,14-21.76v22.85h23.39l.48,2.84c-5.63,7.5-15.79,1.74-23.71,6.77,0,15.11-.2,31.08.11,47,.11,5.4,3.82,8.44,9.31,8.27,4.54-.13,9.06-.87,15-1.49-1,2.44-1.3,5.05-2.74,6.2-7.19,5.77-15.24,7.45-24.15,4.12S91.32,426,91.26,417.6c-.09-11.8-.43-23.62.08-35.39.33-7.61-.45-13.57-10.66-13.8Z"/><path class="cls-1" d="M401.83,365.14l9.85-3.6c4.15-7.37.17-19.76,14-21.65v22.69h23.4c.16.94.33,1.89.49,2.84-5.61,7.52-15.78,1.74-23.71,6.79,0,15.09-.2,31.05.11,47,.11,5.4,3.8,8.45,9.29,8.29,4.54-.13,9.06-.87,15.57-1.55-1.69,2.91-2.4,5.63-4.16,6.92-7.42,5.47-15.55,6.79-24.31,3.05-8.21-3.5-10.31-10.36-10.38-18.31-.12-11.79,0-23.59-.08-35.39,0-6.84,2-15.07-12.5-12.5C400.24,368.2,401,366.67,401.83,365.14Z"/><path class="cls-1" d="M1671,360.26v49.28c0,15.55,0,15.55,12.74,25.13h-35.88c0-.11-.31-1.28-.1-1.37,9.4-4.32,10.11-12.2,9.54-21.19a221.35,221.35,0,0,1,0-27.86c.49-7.42-.63-13.34-9-16l.21-2.4Z"/><path class="cls-1" d="M1664.71,327c5.77,4.52,11.18,8.41,3.87,15.57-3.63,3.55-6.65,5-10.58.35C1653.13,337.11,1653.8,335.09,1664.71,327Z"/><polygon class="cls-1" points="1069.67 0 1114.63 91.1 1215.17 105.71 1142.42 176.63 1159.59 276.76 1069.67 229.48 979.75 276.76 996.92 176.63 924.17 105.71 1024.71 91.1 1069.67 0"/><polygon class="cls-1" points="1402.68 0 1447.64 91.1 1548.18 105.71 1475.43 176.63 1492.61 276.76 1402.68 229.48 1312.76 276.76 1329.93 176.63 1257.18 105.71 1357.72 91.1 1402.68 0"/><polygon class="cls-1" points="1736.5 0 1781.46 91.1 1882 105.71 1809.25 176.63 1826.42 276.76 1736.5 229.48 1646.57 276.76 1663.75 176.63 1590.99 105.71 1691.53 91.1 1736.5 0"/></g></g></svg>